<svg xmlns="http://www.w3.org/2000/svg" xmlns:xlink="http://www.w3.org/1999/xlink" version="1.1" width="256" height="256" viewBox="0 0 256 256" xml:space="preserve">

<defs>
</defs>
<g style="stroke: none; stroke-width: 0; stroke-dasharray: none; stroke-linecap: butt; stroke-linejoin: miter; stroke-miterlimit: 10; fill: none; fill-rule: nonzero; opacity: 1;" transform="translate(1.4065934065934016 1.4065934065934016) scale(2.81 2.81)" >
	<path d="M 84.563 16.063 h -4.426 v -2.891 c 0 -2.634 -2.143 -4.776 -4.775 -4.776 H 71.53 v -3.62 C 71.53 2.143 69.388 0 66.754 0 H 5.437 C 2.803 0 0.661 2.143 0.661 4.776 v 73.637 C 0.661 84.802 5.859 90 12.248 90 h 67.187 c 5.211 0 9.486 -5.008 9.867 -11.335 c 0.012 -0.062 0.037 -0.12 0.037 -0.186 V 20.84 C 89.339 18.206 87.196 16.063 84.563 16.063 z M 12.248 88 c -5.287 0 -9.587 -4.301 -9.587 -9.587 V 4.776 C 2.661 3.245 3.906 2 5.437 2 h 61.317 c 1.531 0 2.776 1.245 2.776 2.776 v 72.975 c 0 4.282 1.786 8.059 4.485 10.249 H 12.248 z M 79.435 88 c -4.358 0 -7.904 -4.598 -7.904 -10.249 V 10.396 h 3.832 c 1.53 0 2.775 1.246 2.775 2.776 v 65.307 c 0 0.553 0.447 1 1 1 s 1 -0.447 1 -1 V 18.063 h 4.426 c 1.53 0 2.775 1.246 2.775 2.776 v 56.911 C 87.339 83.402 83.793 88 79.435 88 z" style="stroke: none; stroke-width: 1; stroke-dasharray: none; stroke-linecap: butt; stroke-linejoin: miter; stroke-miterlimit: 10; fill: rgb(0,0,0); fill-rule: nonzero; opacity: 1;" transform=" matrix(1 0 0 1 0 0) " stroke-linecap="round" />
	<path d="M 35.662 38.106 h -23.69 c -1.554 0 -2.818 -1.264 -2.818 -2.818 V 11.322 c 0 -1.554 1.264 -2.819 2.818 -2.819 h 23.69 c 1.554 0 2.818 1.265 2.818 2.819 v 23.966 C 38.48 36.842 37.216 38.106 35.662 38.106 z M 11.972 10.503 c -0.451 0 -0.818 0.367 -0.818 0.819 v 23.966 c 0 0.451 0.367 0.818 0.818 0.818 h 23.69 c 0.451 0 0.818 -0.367 0.818 -0.818 V 11.322 c 0 -0.452 -0.367 -0.819 -0.818 -0.819 H 11.972 z" style="stroke: none; stroke-width: 1; stroke-dasharray: none; stroke-linecap: butt; stroke-linejoin: miter; stroke-miterlimit: 10; fill: rgb(0,0,0); fill-rule: nonzero; opacity: 1;" transform=" matrix(1 0 0 1 0 0) " stroke-linecap="round" />
	<path d="M 61.756 10.503 H 46.347 c -0.552 0 -1 -0.448 -1 -1 s 0.448 -1 1 -1 h 15.409 c 0.553 0 1 0.448 1 1 S 62.309 10.503 61.756 10.503 z" style="stroke: none; stroke-width: 1; stroke-dasharray: none; stroke-linecap: butt; stroke-linejoin: miter; stroke-miterlimit: 10; fill: rgb(0,0,0); fill-rule: nonzero; opacity: 1;" transform=" matrix(1 0 0 1 0 0) " stroke-linecap="round" />
	<path d="M 61.756 19.704 H 46.347 c -0.552 0 -1 -0.448 -1 -1 s 0.448 -1 1 -1 h 15.409 c 0.553 0 1 0.448 1 1 S 62.309 19.704 61.756 19.704 z" style="stroke: none; stroke-width: 1; stroke-dasharray: none; stroke-linecap: butt; stroke-linejoin: miter; stroke-miterlimit: 10; fill: rgb(0,0,0); fill-rule: nonzero; opacity: 1;" transform=" matrix(1 0 0 1 0 0) " stroke-linecap="round" />
	<path d="M 61.756 28.905 H 46.347 c -0.552 0 -1 -0.448 -1 -1 s 0.448 -1 1 -1 h 15.409 c 0.553 0 1 0.448 1 1 S 62.309 28.905 61.756 28.905 z" style="stroke: none; stroke-width: 1; stroke-dasharray: none; stroke-linecap: butt; stroke-linejoin: miter; stroke-miterlimit: 10; fill: rgb(0,0,0); fill-rule: nonzero; opacity: 1;" transform=" matrix(1 0 0 1 0 0) " stroke-linecap="round" />
	<path d="M 61.756 38.106 H 46.347 c -0.552 0 -1 -0.448 -1 -1 s 0.448 -1 1 -1 h 15.409 c 0.553 0 1 0.448 1 1 S 62.309 38.106 61.756 38.106 z" style="stroke: none; stroke-width: 1; stroke-dasharray: none; stroke-linecap: butt; stroke-linejoin: miter; stroke-miterlimit: 10; fill: rgb(0,0,0); fill-rule: nonzero; opacity: 1;" transform=" matrix(1 0 0 1 0 0) " stroke-linecap="round" />
	<path d="M 61.756 47.308 H 10.154 c -0.552 0 -1 -0.447 -1 -1 c 0 -0.552 0.448 -1 1 -1 h 51.602 c 0.553 0 1 0.448 1 1 C 62.756 46.86 62.309 47.308 61.756 47.308 z" style="stroke: none; stroke-width: 1; stroke-dasharray: none; stroke-linecap: butt; stroke-linejoin: miter; stroke-miterlimit: 10; fill: rgb(0,0,0); fill-rule: nonzero; opacity: 1;" transform=" matrix(1 0 0 1 0 0) " stroke-linecap="round" />
	<path d="M 61.756 56.509 H 10.154 c -0.552 0 -1 -0.447 -1 -1 s 0.448 -1 1 -1 h 51.602 c 0.553 0 1 0.447 1 1 S 62.309 56.509 61.756 56.509 z" style="stroke: none; stroke-width: 1; stroke-dasharray: none; stroke-linecap: butt; stroke-linejoin: miter; stroke-miterlimit: 10; fill: rgb(0,0,0); fill-rule: nonzero; opacity: 1;" transform=" matrix(1 0 0 1 0 0) " stroke-linecap="round" />
	<path d="M 61.756 65.71 H 10.154 c -0.552 0 -1 -0.447 -1 -1 s 0.448 -1 1 -1 h 51.602 c 0.553 0 1 0.447 1 1 S 62.309 65.71 61.756 65.71 z" style="stroke: none; stroke-width: 1; stroke-dasharray: none; stroke-linecap: butt; stroke-linejoin: miter; stroke-miterlimit: 10; fill: rgb(0,0,0); fill-rule: nonzero; opacity: 1;" transform=" matrix(1 0 0 1 0 0) " stroke-linecap="round" />
	<path d="M 61.756 74.911 H 10.154 c -0.552 0 -1 -0.447 -1 -1 s 0.448 -1 1 -1 h 51.602 c 0.553 0 1 0.447 1 1 S 62.309 74.911 61.756 74.911 z" style="stroke: none; stroke-width: 1; stroke-dasharray: none; stroke-linecap: butt; stroke-linejoin: miter; stroke-miterlimit: 10; fill: rgb(0,0,0); fill-rule: nonzero; opacity: 1;" transform=" matrix(1 0 0 1 0 0) " stroke-linecap="round" />
</g>
</svg>